<svg width="30" height="27" viewBox="0 0 30 27" fill="none" xmlns="http://www.w3.org/2000/svg">
<g clip-path="url(#clip0_78_7946)">
<path d="M0 13.45V16.78C0 16.78 0.03 16.85 0.06 16.86C0.09 16.86 0.13 16.86 0.16 16.82C1.66 14.37 3.41 13.2 3.58 13.09C3.67 10.53 4.75 8.13 6.61 6.34C8.48 4.54 10.94 3.49 13.54 3.49L25.79 3.55C25.36 5.83 24.21 7.83 22.45 9.22C20.82 10.5 18.71 11.31 16.34 11.54C15.88 11.58 15.39 11.62 14.87 11.66C14.54 11.68 14.27 11.7 14.02 11.73C4.33 12.54 0 18.91 0 24.85V26.77H17.11C24.06 26.77 29.72 20.74 29.72 13.32V10C29.72 10 29.69 9.93 29.66 9.92C29.63 9.92 29.59 9.92 29.57 9.96C28.09 12.43 26.33 13.57 26.15 13.68C26.05 16.24 24.98 18.64 23.12 20.43C21.25 22.23 18.79 23.29 16.19 23.29H3.93C4.36 21 5.51 18.95 7.27 17.56C8.9 16.28 11.01 15.47 13.38 15.24C13.85 15.19 14.34 15.15 14.84 15.12H14.86C15.18 15.1 15.45 15.08 15.71 15.05C25.39 14.22 29.73 7.85 29.73 1.9V0H12.61C5.66 0 0 6.03 0 13.45Z" fill="#00744D"/>
</g>
<defs>
<clipPath id="clip0_78_7946">
<rect width="29.72" height="26.77" fill="white"/>
</clipPath>
</defs>
</svg>
